<svg id="Layer_1" data-name="Layer 1" xmlns="http://www.w3.org/2000/svg" viewBox="0 0 800 203"><defs><style>.cls-1{fill:#1e3142;}.cls-2{fill:url(#New_Gradient_Swatch_copy_16);}</style><linearGradient id="New_Gradient_Swatch_copy_16" x1="34.21" y1="91.59" x2="344.66" y2="91.59" gradientUnits="userSpaceOnUse"><stop offset="0" stop-color="#e4ab4d"/><stop offset="0.51" stop-color="#cd5b58"/><stop offset="1" stop-color="#c5266a"/></linearGradient></defs><title>03_cordentity_app_LOGO_color</title><path class="cls-1" d="M379.73,115.39c1.33,8.45,9.27,11.76,16.22,11.76,7.61,0,11.59-2,17.21-7.45l14.74,12.91c-11.76,12.74-20.86,17.21-33.1,17.21-29,0-43.37-21.85-43.2-43.53,0-21.68,13.9-43.69,43-43.69,28.13,0,46.51,23.17,40.38,52.79ZM409.52,97c-2.48-16.38-27.8-15.55-30.12,0Z"/><path class="cls-1" d="M464.79,64.58l1.82,9.11c5.63-7.12,13.24-9.77,22-9.77,15.4,0,34.92,11.09,34.92,35.92v48.65H495.91V99.84c0-9.77-7-14.4-14.57-14.4a19.32,19.32,0,0,0-11.75,4v59.08h-27.8V64.58Z"/><path class="cls-1" d="M577.48,148.16a80.83,80.83,0,0,1-10.59,1c-16.72,0-31.12-8.94-30.45-29.3V85.77H525.35V64.58h11.09V44.72l27.14-2.64v22.5h13.9V85.77h-13.9V119.7c0,7.78,5.13,9.26,13.9,8.27Z"/><path class="cls-1" d="M610.74,64.58v83.91H582.93V64.58ZM583.1,57.8V32.64h27.47V57.8Z"/><path class="cls-1" d="M666,148.16a80.83,80.83,0,0,1-10.59,1c-16.72,0-31.12-8.94-30.45-29.3V85.77h-11.1V64.58H625V44.72l27.14-2.64v22.5H666V85.77h-13.9V119.7c0,7.78,5.13,9.26,13.9,8.27Z"/><path class="cls-1" d="M714.16,121l3.31-15.22L731,64.58h30l-39.39,97.16c-8,20.35-23.34,19.86-41.38,17.37l.17-20.85c10.76,2.32,18,2,19.69-9.27L664.68,64.58h29.78l15.23,41.22L713.5,121Z"/><path class="cls-2" d="M95.11,94c-6.12-5.62-10.59-6.78-16-6.78-8.94,0-17.21,5.3-17.21,19.53,0,11.25,8.1,18.87,17.37,18.87,5,0,10.76-1.82,17-8.45l16,15.23c-10.75,13.41-21,17.38-33.92,17.38-28.64,0-44.19-20.69-44.19-43.2.16-22.51,16-42.7,44.19-42.86,11.58,0,20.19,2.48,32.27,14.56Zm134.2-29.46,1.82,9.27c4-8.44,13.74-11.09,22.51-9.6a26.45,26.45,0,0,1,15.56,8.44L257.78,93.38c-7.12-8.11-23.34-7.11-23.84,5.8v49.31H206.47V64.58Zm71.16-.49c6.12-.17,12.25,1.32,16.38,4.3V32.64h27.81V148.49H323.14l-2.15-9.1c-6.95,7-14.89,9.77-22.67,9.6-19.86,0-34.1-18-34.1-42C264.22,83.62,278,64.09,300.47,64.09Zm16.38,25a22,22,0,0,0-8.44-2.48c-10.09-.5-16.71,8.44-16.55,19.69.17,13.24,6.13,19.37,16.72,19.37,2.32,0,5.63-1.33,8.27-3.65Zm-167.2,36.84a1.33,1.33,0,0,0-2.56.69c0,.11,3,11.28-1.75,21a1.32,1.32,0,0,0,.62,1.77,1.28,1.28,0,0,0,.57.13,1.3,1.3,0,0,0,1.19-.75C152.85,138.16,149.78,126.42,149.65,125.92Zm4.41.59a1.31,1.31,0,0,0-1,1.57,37,37,0,0,1-2.29,20.39,1.31,1.31,0,0,0,.67,1.74,1.25,1.25,0,0,0,.54.12,1.35,1.35,0,0,0,1.21-.79,39,39,0,0,0,2.45-22A1.32,1.32,0,0,0,154.06,126.51Zm6,5.09a1.32,1.32,0,0,0-1.23,1.41,42.18,42.18,0,0,1-2.31,15.77,1.33,1.33,0,0,0,.81,1.69,1.31,1.31,0,0,0,.44.07,1.33,1.33,0,0,0,1.25-.89,45,45,0,0,0,2.45-16.81A1.34,1.34,0,0,0,160,131.6Zm-.16-2.15.2,0a1.31,1.31,0,0,0,1.11-1.5l-.11-.77a1.32,1.32,0,0,0-2.62.39l.12.77A1.31,1.31,0,0,0,159.86,129.45Zm4.49-5.15a1.32,1.32,0,0,0-.94,1.62c0,.09,2.54,9.85-1.33,22.44a1.32,1.32,0,1,0,2.53.77c4.09-13.3,1.47-23.47,1.35-23.9A1.3,1.3,0,0,0,164.35,124.3Zm4.76-3.55a1.32,1.32,0,0,0-1,1.61,56.61,56.61,0,0,1,0,24.55,1.34,1.34,0,0,0,1,1.61,1.73,1.73,0,0,0,.32,0,1.32,1.32,0,0,0,1.28-1,58.37,58.37,0,0,0,0-25.85A1.32,1.32,0,0,0,169.11,120.75Zm3.67-5.48a1.34,1.34,0,0,0-.72,1.73c.05.11,4.66,11.65,1.91,27.89a1.33,1.33,0,0,0,1.09,1.53l.22,0a1.33,1.33,0,0,0,1.3-1.11c2.88-17-1.87-28.84-2.07-29.34A1.34,1.34,0,0,0,172.78,115.27Zm.92-11a1.31,1.31,0,0,0-.4,1.83c.08.13,8.29,13.21,6.62,35.19a1.33,1.33,0,0,0,1.22,1.42h.1a1.32,1.32,0,0,0,1.32-1.22c1.74-22.93-6.68-36.27-7-36.83A1.32,1.32,0,0,0,173.7,104.32ZM114.42,99.1a1.29,1.29,0,0,0,1.51-1A41.38,41.38,0,0,1,157.71,65.2a1.28,1.28,0,1,0,.08-2.55,43.93,43.93,0,0,0-44.36,34.94A1.28,1.28,0,0,0,114.42,99.1Zm49.73-33.19A41.27,41.27,0,0,1,190,82.42l.05,0a42.1,42.1,0,0,1,4.43,7.84,1.27,1.27,0,0,0,1.67.67h0a1.28,1.28,0,0,0,.64-1.67,44.32,44.32,0,0,0-4.73-8.37s0,0-.06,0A43.79,43.79,0,0,0,164.62,63.4a1.28,1.28,0,0,0-.47,2.51Zm-41.28,64.84s0,0-.05,0a41,41,0,0,1-7.72-26.12,1.28,1.28,0,0,0-2.55-.13,43.53,43.53,0,0,0,8.23,27.78s0,0,.06,0c.36.51.74,1,1.12,1.49a1.26,1.26,0,0,0,1.52.37,1.91,1.91,0,0,0,.27-.16,1.28,1.28,0,0,0,.21-1.79C123.59,131.73,123.22,131.24,122.87,130.75Zm21.19,1.14a1.27,1.27,0,0,0-1.21,1.34A25.54,25.54,0,0,1,140.24,146a1.28,1.28,0,0,0,.58,1.71,1.28,1.28,0,0,0,1.71-.57,28.23,28.23,0,0,0,2.87-14A1.27,1.27,0,0,0,144.06,131.89Zm40.95-14a1.28,1.28,0,0,0,.71-1.49A70.35,70.35,0,0,0,175.27,94h0l-.47-.66a22.63,22.63,0,1,0-36.73,26.43l.45.6a25.19,25.19,0,0,1,3.09,6.29,1.27,1.27,0,0,0,2.42-.8,27.91,27.91,0,0,0-3.87-7.59l-.41-.55a20.07,20.07,0,0,1,32.75-23.19l.22.31A67.81,67.81,0,0,1,183.25,117a1.27,1.27,0,0,0,1.56.9Zm.7,4.22a1.27,1.27,0,0,0-1.05,1.47,68.2,68.2,0,0,1,.87,13,1.28,1.28,0,0,0,1.24,1.32,1.31,1.31,0,0,0,.56-.12,1.26,1.26,0,0,0,.75-1.12,70,70,0,0,0-.91-13.5A1.28,1.28,0,0,0,185.71,122.07Zm-6.85-32.18h0a27.78,27.78,0,0,0-8.59-7.6A1.28,1.28,0,0,0,169,84.5a25.19,25.19,0,0,1,8.06,7.25l.16.22a73.39,73.39,0,0,1,13.55,38.26,1.27,1.27,0,0,0,1.34,1.2,1.07,1.07,0,0,0,.45-.12,1.27,1.27,0,0,0,.75-1.23,75.82,75.82,0,0,0-14.18-39.82Zm-38.75-6a28.19,28.19,0,0,0-4.77,4.35,1.28,1.28,0,1,0,1.92,1.68A25.46,25.46,0,0,1,163,82a1.27,1.27,0,1,0,.66-2.46A27.9,27.9,0,0,0,140.11,83.88Zm-4.69,37a25.37,25.37,0,0,1-1.69-25.66A1.28,1.28,0,0,0,131.45,94a27.9,27.9,0,0,0,2.31,28.87l.39.53a20.07,20.07,0,0,1,1.23,20.31,1.28,1.28,0,0,0,1.66,1.74,1.25,1.25,0,0,0,.61-.59,22.57,22.57,0,0,0-1.81-23.49ZM131.1,124a31.42,31.42,0,0,1-2.14-3.61,1.27,1.27,0,1,0-2.28,1.14,33.86,33.86,0,0,0,2.75,4.54l.32.43a14.79,14.79,0,0,1,1,14.53,1.28,1.28,0,0,0,1.68,1.71,1.27,1.27,0,0,0,.63-.62,17.31,17.31,0,0,0-1.59-17.55Zm50.29-35.32.34.48c.69,1,1.36,2,2,2.94a1.29,1.29,0,0,0,1.6.48l.17-.09a1.29,1.29,0,0,0,.38-1.77c-.77-1.19-1.58-2.37-2.41-3.53l-.57-.78h0a33.29,33.29,0,0,0-58.67,28.54,1.29,1.29,0,0,0,1.56.92,1.27,1.27,0,0,0,.91-1.56,30.73,30.73,0,0,1,54.71-25.63Zm6.22,7.44a1.27,1.27,0,0,0-.53,1.72,78.3,78.3,0,0,1,8.09,23.92,1.28,1.28,0,0,0,1.47,1,1.12,1.12,0,0,0,.31-.1,1.26,1.26,0,0,0,.73-1.37,80.87,80.87,0,0,0-8.34-24.69A1.27,1.27,0,0,0,187.61,96.08Zm-60.82,31A36.09,36.09,0,0,1,146.11,72a1.27,1.27,0,1,0-.73-2.44,38.62,38.62,0,0,0-20.27,59.57l.23.33a9.44,9.44,0,0,1,1.06,8.17,1.27,1.27,0,0,0,1.73,1.57,1.27,1.27,0,0,0,.69-.76,12,12,0,0,0-1.63-10.81Zm61-43.07-.66-.89h0A38.69,38.69,0,0,0,152,68.21a1.28,1.28,0,0,0,.29,2.54,36.13,36.13,0,0,1,33.43,14.78l.45.61a84,84,0,0,1,11.64,23.59,1.29,1.29,0,0,0,1.6.85l.15-.06a1.28,1.28,0,0,0,.69-1.54A86.8,86.8,0,0,0,187.79,84Z"/></svg>